<svg xmlns="http://www.w3.org/2000/svg" version="1.1" xmlns:xlink="http://www.w3.org/1999/xlink" xmlns:svgjs="http://svgjs.com/svgjs" width="1300" height="600" preserveAspectRatio="none" viewBox="0 0 1300 600"><g mask="url(&quot;#SvgjsMask1052&quot;)" fill="none"><rect width="1300" height="600" x="0" y="0" fill="rgba(187, 231, 239, 1)"></rect><circle r="5.485" cx="173.88500000000002" cy="194.985" filter="url(#SvgjsFilter1053)" fill="rgba(251, 138, 171, 1)"></circle><circle r="5.105" cx="756.705" cy="426.01500000000004" filter="url(#SvgjsFilter1053)" fill="rgba(255, 231, 28, 1)"></circle><circle r="7.44" cx="1137.99" cy="532.5600000000001" filter="url(#SvgjsFilter1053)" fill="rgba(255, 231, 28, 1)"></circle><circle r="6.925" cx="837.055" cy="588.0949999999999" filter="url(#SvgjsFilter1053)" fill="rgba(251, 138, 171, 1)"></circle><circle r="7.17" cx="417.21000000000004" cy="498.43" filter="url(#SvgjsFilter1053)" fill="rgba(251, 138, 171, 1)"></circle><circle r="7.145" cx="1181.285" cy="538.355" filter="url(#SvgjsFilter1053)" fill="rgba(251, 138, 171, 1)"></circle><circle r="6.315" cx="985.7750000000001" cy="561.995" filter="url(#SvgjsFilter1053)" fill="rgba(255, 231, 28, 1)"></circle><circle r="5.635" cx="1122.615" cy="19.075" filter="url(#SvgjsFilter1053)" fill="rgba(255, 231, 28, 1)"></circle><circle r="8.71" cx="299.08" cy="456.15999999999997" filter="url(#SvgjsFilter1053)" fill="rgba(251, 138, 171, 1)"></circle><circle r="6.655" cx="252.995" cy="21.275" filter="url(#SvgjsFilter1053)" fill="rgba(255, 231, 28, 1)"></circle><circle r="5.57" cx="633.3000000000001" cy="243.75" filter="url(#SvgjsFilter1053)" fill="rgba(255, 231, 28, 1)"></circle><circle r="6.905" cx="839.435" cy="146.135" filter="url(#SvgjsFilter1053)" fill="rgba(255, 231, 28, 1)"></circle><circle r="5.385" cx="461.195" cy="381.815" filter="url(#SvgjsFilter1053)" fill="rgba(251, 138, 171, 1)"></circle><circle r="9.215" cx="673.995" cy="471.47499999999997" filter="url(#SvgjsFilter1053)" fill="rgba(255, 231, 28, 1)"></circle><circle r="7.835" cx="394.54499999999996" cy="570.385" filter="url(#SvgjsFilter1053)" fill="rgba(251, 138, 171, 1)"></circle><circle r="5.18" cx="1130.48" cy="271.04" filter="url(#SvgjsFilter1053)" fill="rgba(251, 138, 171, 1)"></circle><circle r="7.97" cx="1204.58" cy="571.5500000000001" filter="url(#SvgjsFilter1053)" fill="rgba(251, 138, 171, 1)"></circle><circle r="7.67" cx="999.6899999999999" cy="335.15000000000003" filter="url(#SvgjsFilter1053)" fill="rgba(251, 138, 171, 1)"></circle><circle r="5.325" cx="93.285" cy="249.105" filter="url(#SvgjsFilter1053)" fill="rgba(255, 231, 28, 1)"></circle><circle r="7.79" cx="945.54" cy="185.44" filter="url(#SvgjsFilter1053)" fill="rgba(255, 231, 28, 1)"></circle><path d="M363.5 286.6L365.4 268.5 375.5 275.3C376.5 276.1 378.3 275.9 379.6 274.7 380.2 273.1 380 271.3 379 270.5L365.8 261.3 367.7 244.6 394.2 263.5C396 264.6 397.8 264.4 398.4 262.9 399.7 261.6 399.5 259.8 397.7 258.7L368.4 237.9 369.6 222.7 401.6 207.9 412.8 215.5 408.7 253.6C409 254.1 409.2 254.7 409.5 255.2 409.7 255.7 410.7 256.5 411.5 256.8 413.5 257.1 414.9 255.9 414.7 254.1L418.4 219.3 431.7 229 430.4 246.8C429.9 247 430.1 247.6 430.4 248.1 430.9 249.1 431.9 249.9 433.2 250 434.4 250 435.8 248.8 436.3 247.2L437.3 232.8 454.3 244.7C455.3 245.5 457.1 245.3 458.4 244.1 459 242.5 458.8 240.7 457.8 239.9L441.8 228.8 452.9 223.7C454.4 223 454.7 220.9 454.3 219.9 453.5 218.3 451.8 217.2 450.2 217.9L436 224.5 422.6 214.8 452 201.2C453.6 200.5 454.1 198.9 453.4 197.4 452.7 195.8 451.2 195.2 449.6 195.9L417.1 211 405.2 203.1 408.6 167.8 420.7 162.2 450.8 183.3C452 184.6 454.3 184.2 454.9 182.7 456.2 181.4 455.5 179.8 454.3 178.5L427 159.3 442.2 152.3 455.6 162C456.6 162.8 458.9 162.4 459.7 161.4S460.1 158 458.8 156.7L448.5 149.4 466.8 140.9C468.4 140.2 468.7 138.1 468 136.5 467.5 135.5 465.7 134.4 464.2 135.1L445.8 143.6 446.7 130.5C446.8 129.2 446 127.6 444 127.3 442.7 127.2 440.8 128.7 440.8 130L439.5 146.5 424.3 153.5 427.4 120.3C427.2 118.5 426.5 116.9 424.4 116.6 423.1 116.5 421.3 118 421.2 119.3L418 156.4 405.9 162 376.8 141.7 378.6 127.5 411.1 112.5C412.7 111.8 413.2 110.3 412.5 108.7 411.8 107.1 410 106 408.4 106.8L379.1 120.3 380.3 103.8 394.5 97.3C396.1 96.6 396.7 95 395.9 93.4 395.2 91.9 393.7 91.3 392.1 92L381.1 97.1 383 77.8C383 76.5 381.5 74.6 380.2 74.6 378.4 74.8 376.8 75.5 377 77.3L374.9 97.4 363.5 89.3C361.9 88.8 360.1 89 359.3 90 358.5 91 358.5 92.3 359 93.3 359 93.3 359.2 93.8 360 94.1L374.4 104.7 373.1 121.2 344.2 101.4C343 100.1 341.2 100.3 340.1 102 339.8 102.8 339.5 103.6 340 104.6 340.2 105.1 340.5 105.7 340.7 106.2L372.4 127.9 370.9 141.3 338.9 156 326.5 147.1 329.7 111.3C330 109.2 328.8 107.9 327 108.1 325.4 107.5 324.1 108.8 323.8 110.8L320.9 143.3 307 133.8 308.6 117.9C308.6 116.6 307.3 115.2 305.8 114.7 304 114.9 302.4 115.6 302.6 117.4L301.2 129.5 286.3 119.2C285 117.9 283.5 118.6 282.1 119.9 281.8 120.6 281.8 121.9 282.3 123 282.3 123 282.5 123.5 282.8 124L298.7 135.1 285.6 141.2C284.5 141.7 283.5 143.4 284.2 145 284.9 146.6 287 146.9 288 146.4L304.3 138.9 318.2 148.4 286.2 163.2C284.6 163.9 284.3 166 285 167.5S287.3 169.7 288.9 168.9L324 152.7 335.4 160.8 332 196.1 318.3 202.4 288 180.8C286.4 180.2 284.6 180.4 283.3 181.7 283 182.5 283 183.7 283.5 184.8 283.7 185.3 283.9 185.8 284.7 186.1L312 205.3 296.8 212.4 282.9 202.9C281.9 202.1 280.1 202.3 278.7 203.5 278.2 205.1 278.4 206.9 279.4 207.7L290.5 215.3 273.7 223C272.7 223.5 271.8 225.8 272.3 226.8 273 228.4 275.3 229.3 276.4 228.8L293.2 221 291.5 233.9C291.7 234.4 292 235 292.2 235.5 292.7 236.5 293.7 237.3 294.5 237.6 296.3 237.4 297.6 236.2 298.2 234.6L299.5 218.1 314.7 211.1 311.6 244.4C311.2 246.4 312.5 247.8 313.8 247.8 315.8 248.1 317.2 246.9 317.7 245.3L321 208.2 334.6 201.9 363.7 222.2 362.5 236.1 327.4 252.4C325.8 253.1 325.2 254.6 325.9 256.2 326.7 257.8 328.2 258.3 329.8 257.6L361.8 242.8 360 259.6 343.7 267.1C342.6 267.6 341.8 269.9 342.5 271.4 343.2 273 345.3 273.3 346.4 272.9L359.5 266.8 357.6 286.1C357.8 286.7 357.8 286.7 358.1 287.2 358.5 288.2 359.5 289 360.3 289.3 362.1 289.1 363.5 287.9 363.5 286.6ZM340.9 199L337.9 196.6 338.3 193.2 341 164.6 341.3 161.3 344.5 159.8 370.2 148 373.3 146.5 376.1 148.4 399.6 164.9 402.4 166.8 402.3 170.7 399.3 198.8 399.2 202.6 396.1 204.1 370.4 216 367.2 217.4 364.2 215 340.9 199Z" fill="rgba(251, 138, 171, 1)"></path><path d="M521.5 561.8L539.1 551.9 539.4 564.1C539.4 565.4 540.6 566.8 542.4 567.1 543.9 566.7 545.3 565.5 544.9 563.9L545 548.6 558.4 540.3 558.1 572.1C558.6 573.7 559.8 575.1 561.1 575.2 563.1 575 564.5 573.8 564.1 572.2L564.3 537 585.1 525 582 552.5 604.2 535.9 604.4 560 574.1 578C573.6 577.7 573.3 578.2 573 578.7 572.5 579.7 572.4 581 573.1 582 573.8 583.1 575.6 583.5 577.2 583.1L604.5 566.7 604.1 582.5 591 590.3C590.2 590.5 589.9 591 589.7 591.5 589.4 592 589.3 593.3 590 594.4 590.7 595.5 592.5 595.8 593.6 595.1L604.3 589.2 604.7 609.4C604.3 611.2 605.8 612.1 607.6 612.5 608.9 612.5 610.3 611.3 610.1 609.2L610.2 589.3 620.8 595.3C622.3 596.2 624.1 595.3 624.7 594.3 625.6 592.8 625.1 591.2 623.6 590.3L610.1 582.6 610.5 566.8 637.5 582.3C639 583.2 640.6 582.7 641.5 581.2 642 580.2 641.9 578.2 640.4 577.3L610.3 560.1 610.1 536 632.3 552 629.1 524.9 650.2 537 650.3 571.6C650.4 573.7 651.9 574.6 653.2 574.7 654.5 574.7 655.9 573.5 656.2 571.7L655.7 540.1 669.2 547.9 669.7 563.4C669.3 565.2 670.5 566.6 672.6 566.4 673.9 566.5 675.2 565.3 675.1 563.2L675.3 551.3 692.8 561.4C694.3 562.2 695.9 561.8 696.7 560.3S697.2 557.2 695.7 556.3L678.1 546.3 688.3 540.1C690.2 539.2 690.5 537.4 689.8 536.3 688.9 534.5 687.1 534.1 685.7 535.3L672.1 542.8 658.6 535.1 686.1 519.6C687.5 518.4 687.8 516.6 687.1 515.5 686.2 513.6 684.4 513.3 683 514.5L653.1 531.9 632 519.9 656.9 508.9 631.9 497.9 652.8 485.9 682.9 503.1C684.4 503.9 686.3 503 686.8 502 687.7 500.5 687.3 498.9 685.8 498.1L658.2 482.3 672.1 474.3 685.6 482C687.1 482.9 688.7 482.4 689.6 480.9 690.1 479.9 690 477.9 688.5 477L678 471 695.1 460.8C697 459.9 697.3 458.1 696.1 456.7 695.4 455.7 693.9 454.8 692.5 456L674.9 465.9 674.5 453.7C674.6 452.4 673.4 451 672.1 451 670.8 450.9 669.7 451.6 669.5 452.1 669.2 452.6 668.9 453.1 669.1 453.9L669 469.2 655.6 477.5 655.8 445.7C655.4 444.1 654.2 442.7 652.9 442.6 651.6 442.6 650.5 443.3 650 444.3 649.7 444.8 649.7 444.8 649.9 445.6L649.7 480.8 628.9 492.8 632 465.3 609.8 481.9 609.6 457.8 639.9 439.8C640.9 439.1 641.8 437.6 640.9 435.8 640.2 434.7 638.4 434.3 636.8 434.8L609.5 451.1 609.8 435.3 623 427.5C624.5 427.1 624.9 425.3 624 423.4 623.3 422.3 621.5 422 619.9 422.4L609.7 428.6 609.3 408.4C609.6 406.6 608.1 405.7 606.4 405.3 605.6 405.6 604.5 406.3 604.2 406.8 603.9 407.3 603.6 407.8 603.8 408.6L603.8 428.5 593.2 422.5C591.7 421.6 589.9 422.5 589.3 423.5L589.3 423.5C588.4 425 588.9 426.6 590.4 427.5L603.9 435.2 603.5 451 576.4 435.5C574.9 434.6 573.4 435.1 572.5 436.6S572.1 439.6 573.6 440.5L603.7 457.7 603.9 481.8 581.7 465.8 584.9 492.9 563.8 480.8 563.7 446.2C563.5 444.1 562 443.2 560.7 443.1 559.5 443.1 558.1 444.3 557.7 446.1L557.8 477.4 544.7 469.9 544.3 454.4C544.7 452.6 543.5 451.2 541.4 451.4 540.1 451.3 538.7 452.5 538.4 454.3L538.7 466.5 521.2 456.4C519.7 455.6 518.1 456 517.2 457.5S516.8 460.6 518.3 461.5L535.9 471.5 525.7 477.7C524.9 477.9 524.6 478.4 524.3 478.9 523.7 479.9 524 480.7 524.2 481.5 525.1 483.3 526.9 483.7 528.2 482.5L541.9 475 555.4 482.7 527.9 498.2C527.6 498.7 527.3 499.2 527 499.7 526.4 500.7 526.7 501.5 526.9 502.3 527.8 504.2 529.6 504.5 531 503.3L560.9 485.9 582 497.9 557 508.9 582 519.9 561.2 531.9 531.1 514.7C529.6 513.9 527.7 514.8 527.1 515.8 526.3 517.3 526.7 518.9 528.2 519.7L555.3 535.2 541.9 543.5 528.4 535.8C526.8 534.9 525.3 535.4 524.4 536.9S524 539.9 525.5 540.8L536 546.8 518.9 557C518.1 557.2 517.8 557.7 517.5 558.2 517.2 558.7 517.2 560 517.9 561.1 518.6 562.1 520.1 563 521.5 561.8ZM571 508.9L591.4 500 588.8 477.9 607.2 491.1 624.8 477.8 622.8 500 643 508.9 622.5 517.8 625.2 539.9 607.3 527 589.2 540 591.7 518.1 571 508.9Z" fill="rgba(251, 138, 171, 1)"></path><path d="M870.5 360.9L850.5 390.8 819 396.9 829.5 366.6 861.9 351.1C861.9 351.1 862.3 350.8 862.3 350.8 862.9 350.3 863 349 862.8 348.1 862.2 346.8 860.7 346.4 859.8 347.3L831.4 360.9 836.5 346.2 848.9 340C848.9 340 849.2 339.8 849.2 339.8 849.9 339.2 850 338 849.7 337 849.2 335.8 847.7 335.4 846.7 336.2L838.1 340.2 842 329.4C842.4 328.5 841.6 326.9 840.7 326.6 839.5 325.9 838.2 327 837.8 327.9L834 338.7 830 330.1C829.4 328.8 827.9 328.4 826.9 329.3 825.7 329.8 825.3 331.3 826.1 332.3L832.3 344.7 827 359.1 813.3 330.7C812.8 329.5 811.3 329.1 810.3 329.9 809 330.4 808.6 331.9 809.5 332.9L825 365.4 814.5 395.6 793.2 371.1 795.8 335C795.9 333.8 795.1 332.8 793.8 332.7 792.6 332.6 791.6 333.5 791.5 334.7L789.3 366.5 779 354.7 780 341.3C780.1 340 779.2 339.1 778 339 776.8 338.9 775.8 339.7 775.7 341L775.1 350.1 767.1 341C766.6 339.7 765.1 339.9 764.1 340.7 763.1 341.6 763 342.8 763.9 343.8L771.2 352.3 762.1 351.7C760.8 351.6 759.9 352.4 759.8 353.6S760.5 355.8 761.8 355.9L775.2 356.9 785.4 368.7 753.6 366.4C752.4 366.3 751.4 367.2 751.3 368.4 751.3 369.6 752.1 370.6 753.3 370.7L789.4 373.3 810.4 397.5 778.9 403.5 749.9 384C748.7 383.3 747.5 383.8 746.5 384.6 745.8 385.8 746.3 387.1 747.2 388.1L773.3 405.6 758 408.5 746.6 400.6C745.4 399.9 744.1 400.4 743.2 401.3 742.5 402.5 743 403.7 743.5 404.4L751.5 409.6 740.2 411.8C739.3 412.1 738 413.2 738.5 414.5 739 415.7 739.9 416.7 741.2 416.2L752.4 413.9 747.2 421.9C746.5 423 747 424.3 747.6 425 748.5 425.3 749.7 425.4 750.4 424.9 750.4 424.9 750.7 424.6 750.7 424.6L758.6 413.2 773.8 410.3 756.3 436.3C755.6 437.5 756.1 438.8 756.7 439.4 757.6 439.8 758.8 439.9 759.5 439.3 759.5 439.3 759.8 439 759.8 439L779.8 409.1 811.2 403.1 800.8 433.4 768.3 448.9C767.1 449.4 766.6 450.9 767.5 451.9 768 453.1 769.5 453.6 770.5 452.7L798.8 439.1 793.8 453.8 781.4 459.9C780.1 460.5 779.7 462 780.5 463 781 464.2 782.6 464.6 783.5 463.8L792.1 459.8 788.3 470.6C787.9 471.5 788.7 473.1 789.6 473.4 790.5 473.8 791.4 473.6 792.1 473 792.4 472.7 792.7 472.4 792.8 471.8L796.6 461 800.6 469.6C801.2 470.9 802.7 471.3 803.6 470.4 803.6 470.4 804 470.2 804 470.2 804.6 469.6 804.7 468.4 804.5 467.4L798.3 455 803.3 440.3 817 468.6C817.5 469.9 819 470.3 820 469.5 820 469.5 820.3 469.2 820.3 469.2 821 468.6 821.1 467.4 820.8 466.4L805.3 434 815.8 403.7 836.8 428 834.2 464C834.1 465.2 835 466.2 836.2 466.3 837.4 466.4 838.4 465.6 838.5 464.3L841 432.9 851.3 444.7 850.3 458.1C850.2 459.3 851.1 460.3 852.3 460.4S854.5 459.6 854.6 458.4L855.2 449.2 862.6 457.8C863.5 458.7 864.7 458.8 865.7 458 866.6 457.1 866.7 455.9 865.9 454.9L858.5 446.4 867.7 447.1C868.3 447.1 868.9 447.2 869.6 446.6S870.2 445.4 870.3 444.8C870.4 443.6 869.5 442.6 868.3 442.5L854.9 441.5 844.6 429.8 876.4 432C877 432.1 877.7 432.1 878.3 431.5 878.6 431.3 879 430.4 879 429.8 879.1 428.5 878.3 427.5 877.1 427.5L841 424.9 820 400.6 851.5 394.6 881.4 414.6C882.3 414.9 883.5 415 884.1 414.5 884.1 414.5 884.5 414.2 884.5 414.2 885.2 413 884.6 411.7 884.1 411.1L858 393.5 873.2 390.6 884.7 398.5C885.6 398.9 886.8 399 887.4 398.4 887.4 398.4 887.8 398.1 887.8 398.1 888.5 396.9 887.9 395.7 887.4 395L879.4 389.8 890.7 387.6C891 387.3 891.6 387.3 891.9 387.1 892.6 386.5 893 385.6 892.7 384.7 892.2 383.4 891.3 382.4 890.1 382.9L878.9 385.2 884 377.3C884.7 376.1 884.2 374.8 883.6 374.2 882.5 373.5 881.2 374 880.5 374.6L872.7 386 857.4 388.9 874.9 362.8C875.6 361.6 875.1 360.4 874.5 359.7 872.7 359.6 871.2 359.8 870.5 360.9Z" fill="rgba(255, 231, 28, 1)"></path><path d="M1034 184.5L1007.4 162.4 1006.5 149.8 1015.5 157.3C1016.2 158.4 1017.5 158 1018.6 157.2 1019.1 156.4 1019 154.8 1018.2 154.4L1006 143.8 1004.8 131.5 1016 136.9 1021.4 152.1C1021.4 152.1 1021.6 152.5 1021.6 152.5 1022.1 153.2 1023.3 153.4 1024.3 153.3 1025.3 152.5 1025.8 151.7 1025.4 150.4L1021.4 139.4 1032.6 144.8 1044.7 177.1C1044.7 177.1 1044.5 177.7 1044.5 177.7 1045 178.4 1046.2 178.6 1047.2 178.5 1048.5 178.1 1049.1 176.6 1048.3 175.6L1038.1 147.3 1051.9 153.5 1056.5 166.1C1056.5 166.1 1056.5 166.1 1056.8 166.5 1057.3 167.2 1058.1 167.6 1059.1 167.5 1060.2 166.8 1061 165.7 1060.6 164.3L1057.4 156 1067.5 160.6C1068.6 161.4 1069.6 160.7 1070.1 159.8 1070.9 158.7 1070.5 157.4 1069.1 156.8L1059.4 152 1067.6 149.4C1068.7 148.7 1069.5 147.6 1068.7 146.5 1068.3 145.2 1067.5 144.7 1066.2 145.1L1053.5 149.7 1040 143.3 1068.7 132.8C1069.6 132.6 1070.2 131.2 1069.8 129.9 1069.3 129.2 1068.2 128.4 1066.9 128.7L1034.6 140.8 1023.4 135.4 1034.4 131.4C1035.7 131 1035.9 129.8 1035.5 128.5 1035.4 127.5 1033.9 127 1032.9 127.1L1017.9 132.8 1006.4 127.7 1016.7 120.5 1032.4 123.3C1033.6 123.5 1034.7 122.7 1034.9 121.5 1035.3 120.7 1034.3 119.3 1033.1 119L1021.7 117 1032 109.8 1066 116.1C1067.2 116.4 1068.3 115.6 1068.5 114.4 1068.7 113.2 1068 112.1 1066.7 111.9L1036.9 106.3 1049 97.9 1062.3 100.2C1063.5 100.4 1064.5 99.7 1064.8 98.5 1065 97.3 1064.2 96.2 1063 96L1054.3 94.2 1063.2 88C1064.3 87.2 1064.5 86 1063.7 84.9 1063 83.9 1061.8 83.7 1060.7 84.4L1051.8 90.6 1053.3 82.2C1053.5 81 1052.8 79.9 1051.6 79.7S1049.3 80.2 1049.1 81.4L1046.9 94.1 1034.4 102.8 1039.7 73.2C1039.9 72 1039.1 70.9 1037.9 70.7 1036.7 70.5 1035.7 71.3 1035.4 72.5L1029.5 106.3 1019.2 113.5 1021.2 102C1021.4 100.8 1020.7 99.7 1019.5 99.5 1018.3 99.3 1017.2 100 1017 101.3L1014.2 116.9 1004.3 123.9 1003.3 111.9 1013.6 99.4C1014 98.6 1014 97 1013.1 96.5 1012 95.7 1011.1 95.9 1010 96.6L1002.5 105.5 1001.5 93.5 1023.7 67C1024.5 65.9 1024.3 64.9 1023.6 63.8 1022.5 63 1021.2 63.4 1020.5 63.9L1000.8 87.2 999.7 72.1 1008 62C1009.1 61.3 1008.7 60 1008 58.9 1007.1 58.4 1005.6 58.5 1004.7 59.6L999.2 66.1 998 55.3C998.2 54.1 997.1 53.3 995.6 53.3 994.6 53.4 993.8 54.5 993.9 55.5L994.8 66.5 988.1 60.7C987 59.9 985.6 60.2 985.2 61.1 984.1 61.8 984.3 62.8 984.8 63.5 985 63.9 985 63.9 985.2 64.2L995.3 72.5 996.4 87.7 973.3 68.3C972.6 67.3 971.3 67.7 970.2 68.4 969.7 69.3 969.9 70.2 970.4 70.9 970.6 71.3 970.6 71.3 970.6 71.3L997.1 94 998.1 106 989.1 98.5C988 97.7 987.1 97.8 986 98.6 985.6 99.4 985.3 100.6 985.8 101.4 986.1 101.7 986.1 101.7 986.3 102.1L998.8 112.4 999.8 124.4 988.9 119.3 983.1 104.3C982.8 103 981.3 102.4 980.3 102.6 979.3 103.3 978.5 104.4 979.2 105.5L983.2 116.4 971.9 111.6 960 78.7C959.8 77.8 958.4 77.2 957.4 77.4 956.3 78.1 955.5 79.2 955.9 80.5L966.2 108.8 952.7 102.3 948.3 90.1C947.9 88.7 946.5 88.2 945.4 88.9 944.5 89.1 943.6 90.2 944 91.5L947.2 99.8 937.1 95.2C936.3 94.8 935 95.2 934.2 96.3 934.1 96.9 934.2 97.8 934.7 98.5 934.7 98.5 934.9 98.9 935.2 99.2L945.3 103.8 936.9 107C936 107.2 935.4 108.6 935.5 109.6 935.8 109.9 935.8 109.9 935.8 109.9 936.5 111 937.7 111.2 938.5 110.7L950.7 106.4 964.6 112.5 936 123C934.9 123.8 934.4 124.6 934.8 125.9 934.8 125.9 935.1 126.3 935.1 126.3 935.6 127 936.4 127.5 937.7 127.1L970.3 115.4 981.2 120.5 970.3 124.4C969.2 125.2 968.4 126.3 969.1 127.3 968.8 127.6 969 127.9 969 127.9 969.5 128.7 970.7 128.9 971.7 128.7L986.7 123 997.9 128.4 987.9 135.3 972.2 132.6C971 132.3 969.6 133.3 969.4 134.5 969.5 135.5 970.3 136.6 971.1 137L983 138.8 972.7 146 938.9 140C937.7 139.8 936.6 140.6 936.4 141.8 936.2 143 936.9 144.1 938.1 144.3L967.7 149.5 955.3 158.2 942.6 155.9C941.4 155.7 940.3 156.5 940.1 157.7S940.6 160 941.8 160.2L950.3 161.7 941.4 167.9C940.4 168.6 940.1 169.8 940.9 170.9 941.6 172 942.8 172.2 943.9 171.4L952.8 165.2 951.5 174C951.4 174.6 951.3 175.2 951.6 175.6 951.8 175.9 952.7 176.4 953.3 176.5 954.5 176.7 955.5 176 955.8 174.8L957.8 161.7 970.2 153 965.2 183C965.1 183.6 965 184.2 965.2 184.5 965.5 184.9 966.3 185.3 966.9 185.5 968.1 185.7 969.2 184.9 969.4 183.7L975.1 149.6 985.4 142.4 983.1 154.1C983 154.7 983.5 155.4 983.7 155.7 984 156.1 984.2 156.5 984.8 156.6 986 156.8 987.4 155.8 987.3 154.8L990.4 138.9 1000.4 131.9 1001.6 144.3 991.1 156.4C990.6 157.3 990.4 158.5 990.9 159.2 991.1 159.5 991.1 159.5 991.5 159.3 992.2 160.4 993.8 160.3 994.6 159.2L1002.1 150.3 1003.3 162.6 980.6 189.1C980.1 190 980.3 190.9 980.8 191.6 981 192 981 192 981 192 982.1 192.8 983.3 193 984.2 191.9L1003.8 168.6 1004.9 183.8 996.6 193.8C995.8 194.9 995.9 195.9 996.4 196.6 996.4 196.6 996.7 196.9 996.7 196.9 997.8 197.7 999.1 197.3 999.8 196.9L1005.4 189.8 1006.2 200.8C1006.5 201.1 1006.7 201.5 1007 201.9 1007.2 202.2 1008.1 202.7 1008.7 202.8 1010 202.4 1011.1 201.6 1010.7 200.3L1009.8 189.3 1016.6 195.2C1017.7 196 1019 195.6 1019.7 195.1 1020.5 194 1020.1 192.7 1019.4 191.6L1009.3 183.3 1007.9 168.4 1030.9 187.7C1032 188.6 1033.6 188.5 1034.1 187.7 1034.9 186.6 1035.1 185.4 1034 184.5Z" fill="rgba(255, 231, 28, 1)"></path><path d="M214.7 522.1L254.6 495.8 267.6 498.1 277 526 268.3 536.3 220.5 539.1C219.9 539.2 219.9 539.2 219.4 539.4 218.3 539.8 217.4 540.7 217.4 542.5 217.9 544.2 218.8 545.1 220.7 545.1L262.5 542.5 248.9 558.1 230.4 559.5C230.4 559.5 229.9 559.7 229.9 559.7 228.8 560 227.9 561 227.9 562.8 227.7 564.1 229.4 565.3 231.2 565.3L243.2 564.9 233.1 576.3C232.1 577.2 232.2 579 233.3 580.5S236.5 581.2 238 580.1L247.6 568.9 248.6 580.8C248.6 582.6 250.3 583.9 252.1 583.9 253.2 583.5 254.6 582.4 254.6 580.6L253.3 562.1 267.5 546.3 270 588.2C270 590 271.7 591.3 273 591.4 274.6 590.9 276.1 589.8 276 588L272.7 540.3 282 529.8 310.2 535.6 314.6 548.7 293.8 591.7C293.1 593.2 293.6 594.8 295.1 595.6S298.2 595.7 298.9 594.3L317.2 556.4 324 576.6 316.1 592.7C315.4 594.2 315.9 595.8 317.6 597.1S320.7 597.3 321.4 595.8L326.6 584.3 331.6 599C332.2 600.7 334.2 601.2 335.8 600.7 337.5 600.1 338.2 598.6 337.7 597L332.7 582.2 343.6 587.7C345.3 588.9 346.9 588.4 347.5 586.4 348.2 584.9 347.6 583.3 346.2 582.5L330.1 574.6 323.2 554.3 360.8 573.3C362.2 574.1 364.4 573.3 365.1 571.9S365.3 568.7 363.8 568L320.6 546.7 316.2 533.5 335.6 511.7 348.8 514.6 375.1 554.5C376.2 555.9 378 555.9 379.7 555.3 381.1 554.2 381.1 552.4 380.6 550.8L357.2 516 377.5 520.1 387.6 535.6C388.7 537 390.6 537 392.2 536.5 393.1 535.6 393.7 533.5 392.5 532.1L386.1 522.1 401.1 524.9C402.4 525.1 403.8 524 404.6 522.5 404.6 520.7 403.5 519.2 402.2 519.1L387.2 516.2 397.6 509C398.5 508.1 399 506.1 398.1 505.2 397.5 503.6 396.3 503.4 394.6 503.9 394.6 503.9 394.1 504.1 394.1 504.1L378.6 514.2 358.3 510.1 393.1 486.8C394.5 485.7 395.3 484.2 394.2 482.7 393.1 481.3 391.8 481.1 390.7 481.5 390.1 481.7 390.1 481.7 390.1 481.7L349.9 508.7 336.7 505.8 327.3 477.9 336.2 468.2 384.4 464.7C385.7 464.9 386.9 463.2 387.1 461.9 387.1 460.1 385.5 458.8 383.6 458.9L341.8 461.4 355.4 445.8 373.9 444.5C375.7 444.5 377.2 443.4 376.6 441.7 376.6 439.9 375 438.6 373.7 438.4L361.3 439.6 371.4 428.2C372.2 426.7 372.2 424.9 371.1 423.5 370.3 423.1 369 422.9 367.9 423.3 367.4 423.5 367.4 423.5 367 424.2L356.9 435.6 355.7 423.2C355.7 421.3 354.2 420.6 353 420.4 352.4 420.6 352.4 420.6 351.9 420.8 350.8 421.2 349.9 422.1 349.7 423.4L351 441.8 337.4 457.4 334.8 415.6C334.3 413.9 333.2 412.5 331.5 413 330.8 412.7 330.8 412.7 330.3 412.9 329.2 413.2 328.4 414.7 328.3 416L331.8 464.2 322.9 473.9 294.1 468.4 289.9 455.8 311.3 412.6C312 411.1 311.2 408.9 309.8 408.2S306.1 408.2 305.4 409.7L287.1 447.6 280.4 427.9 288.2 411.2C289 409.8 288.4 408.1 286.9 407.4 285.5 406.7 283.8 407.2 283.1 408.7L277.7 419.7 272.7 404.9C272.3 403.8 270.7 402.5 269 403.1 267.4 403.6 266.3 405.8 266.7 406.9L271.6 421.7 260.7 416.3C259.9 415.9 259.2 415.6 258.7 415.7 257.6 416.1 257.2 416.8 256.8 417.6 256.1 419 256.7 420.7 258.1 421.4L274.4 429.9 281.1 449.6 243.6 430.6C242.8 430.2 242.3 430.4 241.2 430.8 240.6 431 240.1 431.2 239.7 431.9 239 433.4 239.7 435.6 241.2 436.3L283.9 457.8 288.1 470.4 269.2 492.1 255.7 489.9 229.2 449.5C228.3 448.6 226.8 447.9 225.7 448.2 225.2 448.4 225.2 448.4 225.4 449 223.7 449.5 223.2 451.5 224.3 453L247.6 487.8 226.8 483.9 216.7 468.4C215.8 467.5 214.5 467.3 213.4 467.7 213.4 467.7 212.8 467.8 212.8 467.8 211.2 468.4 210.7 470.4 211.8 471.9L218.9 482.2 203.9 479.4C203.2 479 202.7 479.2 202.1 479.4 201 479.8 200.1 480.7 200.3 481.2 199.8 483.2 200.9 484.7 202.3 485.4L217.3 488.3 207.3 494.7C205.8 495.8 205.3 497.8 206.4 499.3 207.3 500.2 209.3 500.7 210.2 499.8L225.7 489.7 246 493.8 211.2 517.2C209.8 518.3 209.8 520.1 210.3 521.7 211.3 522.7 213.3 523.2 214.7 522.1ZM282 520.7L274.7 499.4 273.6 496.1 275.8 493.5 290.3 477 293.1 474.2 296.4 475 317.9 479.2 321.2 480 322.4 483.2 329.6 504.6 330.7 507.9 328.5 510.4 314 527 311.8 529.5 307.9 529 286.4 524.7 283.1 524 282 520.7Z" fill="rgba(255, 231, 28, 1)"></path><path d="M573.3 185.3L573.6 172.7 580.2 176.3C580.9 176.8 582 176.5 582.8 175.7 583.1 174.7 582.8 173.6 581.8 173.3L573.6 168.5 573.3 158.6 590.5 168.7C591.4 169 592.6 168.8 593 168.1 593.6 166.9 593.4 165.8 592.4 165.5L573.4 154.4 573.5 139.3 587.4 149.7 585.4 132.5 598.4 139.9 598.6 161.9C598.3 162.1 598.5 162.4 598.7 162.7 599 163.4 599.7 163.8 600.5 163.8 601.3 163.7 602.1 162.9 602.3 161.9L602.1 142 610.5 147.1 610.6 156.7C610.5 157.2 610.7 157.5 610.8 157.8 611 158.1 611.7 158.6 612.5 158.5 613.3 158.5 614.1 157.6 614 156.8L614.2 149.2 625.2 155.3C626.1 156.1 627 155.5 627.8 154.7 628.2 154 628 152.9 626.8 152.3L616.1 146 622.7 142.2C623.6 141.7 623.7 140.4 623.3 139.7 622.8 138.8 621.8 138.5 620.9 139.1L612.4 143.9 604 138.8 620.9 129C621.8 128.5 622.1 127.5 621.6 126.6 621.2 125.9 620 125.4 619.1 125.9L600.3 136.8 587.3 129.3 602.9 122.4 587.3 115.5 600.4 107.9 619.2 118.8C620.3 119.4 621.3 118.8 621.7 118.1 622.2 117.5 621.9 116.4 621.1 115.6L603.8 106 612.3 101.1 620.8 105.7C621.7 106.5 622.8 106.3 623.3 105.1 623.8 104.4 623.6 103.3 622.4 102.7L616 98.9 627 92.6C627.9 92.1 628.2 91.1 627.6 90.1S626.1 88.9 625.2 89.5L614.2 95.8 614.1 88.4C614.2 87.1 613.3 86.3 612.5 86.3 611.2 86.3 610.5 87.1 610.7 88.2L610.5 98 602 102.8 602.3 83.1C602 82 601.2 81.2 600.4 81.3 599.1 81.2 598.3 82 598.6 83.1L598.6 104.8 585.4 112.4 587.3 95.5 573.5 105.5 573.6 90.5 592.4 79.6C593.3 79.1 593.4 77.8 593 77.2 592.5 76.2 591.5 76 590.6 76.5L573.4 86.4 573.4 76.4 581.8 71.5C582.8 71 583 70 582.5 69.1 582.1 68.4 581 67.9 580 68.4L573.5 72.2 573.4 59.8C573.4 58.5 572.6 57.7 571.5 57.9 570.7 58 569.7 58.5 570 59.6L569.8 72.3 563.1 68.6C562.4 68.2 561.3 68.4 560.8 69.1 560.4 69.8 560.4 70.6 560.6 70.9 560.8 71.2 561 71.5 561.5 71.6L569.7 76.5 570 86.3 552.8 76.2C551.9 75.9 550.7 76.2 550.3 76.8 549.8 77.5 549.9 78.3 550.3 78.9 550.4 79.3 550.4 79.3 550.9 79.4L569.9 90.5 569.8 105.6 555.9 95.3 557.9 112.5 544.9 105 544.7 83C544.6 82.2 544.1 81.3 542.8 81.2 542 81.2 541.2 82.1 541 83.1L541.2 102.9 532.8 97.8 532.7 88.3C533 87.3 532.1 86.5 530.8 86.4 530 86.5 529.2 87.3 529 88.3L529.1 95.8 518.1 89.6C517.2 88.9 516.3 89.4 515.5 90.3 515.4 90.8 515.4 91.6 515.6 91.9 515.8 92.2 516 92.5 516.5 92.6L527.2 98.9 520.6 102.7C519.7 103.3 519.6 104.6 520 105.2L520 105.2C520.5 106.1 521.5 106.4 522.4 105.9L530.9 101 539.3 106.1 522.4 115.9C521.5 116.4 521.2 117.4 521.7 118.4S523.3 119.6 524.2 119L543 108.2 556 115.6 540.4 122.6 556.1 129.4 542.9 137 524.1 126.1C523 125.6 522 126.1 521.6 126.8 521.2 127.5 521.4 128.6 522.2 129.3L539.2 139.1 531 143.8 522.5 139.2C521.7 138.4 520.5 138.7 520 139.8 519.5 140.5 519.7 141.6 520.6 142.4L527.3 146 516.3 152.3C515.4 152.9 515.1 153.9 515.7 154.8S517.2 156 518.2 155.5L529.1 149.1 529.2 156.6C529.1 157.1 529.3 157.4 529.4 157.7 529.8 158.3 530.3 158.5 530.8 158.6 532.1 158.7 532.9 157.8 532.6 156.7L532.8 147 541.3 142.1 541 161.8C541.2 162.2 541.4 162.5 541.6 162.8 541.9 163.4 542.4 163.5 542.9 163.7 544.2 163.8 545 162.9 544.7 161.8L544.7 140.1 557.9 132.5 556 149.5 569.8 139.4 569.7 154.5 550.9 165.3C550 165.8 549.9 167.1 550.3 167.8 550.8 168.7 551.8 169 552.7 168.4L569.6 158.7 569.9 168.5 561.5 173.4C560.5 173.9 560.3 174.9 560.8 175.9S562.3 177.1 563.3 176.5L569.8 172.7 569.9 185.2C569.8 185.7 570 186 570.2 186.3 570.3 186.6 571 187.1 571.8 187 572.6 187 573.6 186.4 573.3 185.3ZM560.4 141.9L562 128.1 549.2 122.5 562.1 116.7 560.5 103.1 571.8 111.1 582.9 103 581.3 116.9 594.1 122.4 581.5 128 582.9 141.9 571.8 133.6 560.4 141.9Z" fill="rgba(255, 231, 28, 1)"></path><path d="M1203.2 197.5L1192.8 169.4 1204 145.2 1219.4 167.1 1214 196.5C1214 196.5 1214 196.9 1214 196.9 1214.1 197.6 1214.9 198.3 1215.6 198.6 1216.7 198.8 1217.8 198 1217.7 196.9L1222.3 171.2 1229.7 181.7 1227.8 193.1C1227.8 193.1 1227.9 193.5 1227.9 193.5 1227.9 194.2 1228.7 194.9 1229.5 195.2 1230.6 195.4 1231.6 194.6 1231.5 193.5L1233 185.8 1238.4 193.7C1238.8 194.4 1240.3 194.6 1241 194.2 1242 193.7 1241.9 192.3 1241.5 191.6L1236.1 183.7 1243.8 185.2C1244.9 185.5 1245.9 184.7 1245.8 183.6 1246.1 182.5 1245.3 181.5 1244.2 181.6L1232.8 179.7 1225.7 169 1251.5 173.7C1252.6 173.9 1253.6 173.1 1253.5 172 1253.8 170.9 1253 169.9 1251.9 170L1222.4 164.6 1207.1 142.8 1234.1 140.4 1257.2 159.8C1257.9 160.4 1259 160.3 1259.7 159.5 1260.3 158.7 1260.2 157.7 1259.5 157L1239.1 140 1252.1 138.8 1260.7 146C1261.4 146.7 1262.5 146.6 1263.2 145.8 1263.8 145 1263.7 143.9 1263 143.3L1257.1 138.4 1267.2 137.5C1268.3 137.7 1268.9 136.6 1268.8 135.5 1268.7 134.4 1267.9 133.8 1266.8 133.9L1257.5 134.7 1262.4 128.8C1263.1 128.1 1263 127 1262.2 126.3S1260.3 125.8 1259.7 126.5L1252.5 135.2 1239.5 136.3 1256.6 115.9C1257.2 115.2 1257.1 114.1 1256.3 113.4 1255.6 112.8 1254.5 112.9 1253.8 113.6L1234.5 136.7 1207.9 139.1 1219.1 114.9 1246.5 104.9C1247.6 104.4 1247.8 103.3 1247.7 102.2 1247.3 101.2 1246.2 100.9 1245.1 101L1220.5 110.1 1226 98.3 1236.9 94.5C1238 94 1238.2 92.9 1238.1 91.8 1237.7 90.8 1236.6 90.5 1235.8 90.6L1228.5 93.4 1232.4 84.7C1232.7 84 1232.6 82.5 1231.5 82.3 1230.4 82 1229.3 82.1 1229 83.2L1225.1 91.9 1222.3 84.5C1221.8 83.5 1220.7 83.2 1220 83.3 1219.3 83.7 1218.6 84.5 1218.7 85.2 1218.7 85.2 1218.7 85.6 1218.7 85.6L1222.6 96.5 1217.1 108.2 1208 83.6C1207.6 82.6 1206.5 82.3 1205.8 82.3 1205.1 82.8 1204.4 83.6 1204.5 84.3 1204.5 84.3 1204.5 84.6 1204.5 84.6L1215 112.7 1203.7 136.9 1188.3 115.1 1193.7 85.6C1194 84.5 1193.2 83.5 1192.1 83.6 1191 83.3 1190 84.1 1190.1 85.2L1185.4 111 1178 100.4 1179.9 89C1180.1 87.9 1179.3 86.9 1178.2 86.9 1177.1 86.7 1176.1 87.5 1176.2 88.6L1174.7 96.3 1169.3 88.5C1168.9 87.8 1167.4 87.5 1166.7 88 1166 88.4 1165.8 89.1 1165.8 89.9 1165.8 90.2 1165.9 90.6 1166.3 90.9L1171.7 98.8 1163.9 97.3C1162.8 97 1161.8 97.8 1161.9 98.9 1161.9 98.9 1161.9 99.3 1161.9 99.3 1162 100 1162.8 100.6 1163.5 100.9L1174.9 102.8 1182.4 113.4 1156.6 108.8C1155.5 108.5 1154.5 109.3 1154.6 110.4 1154.6 110.4 1154.6 110.8 1154.6 110.8 1154.7 111.5 1155.5 112.2 1156.2 112.4L1185.7 117.8 1201 139.7 1174.4 142 1151.3 122.7C1150.5 122 1149.4 122.1 1148.8 122.9 1148.1 123.7 1148.2 124.8 1149 125.4L1169 142.5 1156.1 143.6 1147.4 136.4C1146.7 135.8 1145.6 135.9 1144.9 136.6S1144.4 138.5 1145.1 139.2L1151 144.1 1141.7 144.9C1140.6 145 1139.9 145.8 1140 146.9 1140.1 147.9 1140.9 148.6 1142 148.5L1151.3 147.7 1146.4 153.5C1146.1 153.9 1145.8 154.3 1145.8 155.1S1146.3 156.1 1146.7 156.4C1147.4 157.1 1148.5 157 1149.2 156.2L1156.4 147.6 1169.3 146.5 1152.3 166.8C1152 167.2 1151.6 167.6 1151.7 168.3 1151.7 168.7 1152.2 169.4 1152.5 169.7 1153.3 170.3 1154.4 170.2 1155.1 169.5L1174.4 146.4 1201 144 1189.8 168.2 1161.7 178.7C1161 179.1 1160.3 179.9 1160.4 180.6 1160.4 180.6 1160.4 181 1160.4 181 1160.9 182 1162 182.3 1162.7 182.2L1187.3 173.2 1181.8 184.9 1170.9 188.7C1170.2 189.2 1169.6 189.9 1169.6 190.7 1169.6 190.7 1169.6 191 1169.6 191 1170.1 192.1 1171.2 192.3 1171.9 192.3L1179.3 189.4 1175.3 198.1C1175.4 198.5 1175.1 198.9 1175.1 199.2 1175.1 200 1175.6 200.6 1176.3 200.9 1177.4 201.2 1178.5 201.1 1178.8 200L1182.7 191.3 1185.5 198.7C1186 199.7 1187.1 200 1187.8 199.9 1188.9 199.5 1189.1 198.4 1189.1 197.6L1185.2 186.7 1190.7 175 1199.8 199.6C1200.2 200.7 1201.3 200.9 1202 200.9 1203 199.7 1203.7 198.5 1203.2 197.5Z" fill="rgba(251, 138, 171, 1)"></path><path d="M1195.1 610.2L1157.9 594.5 1152.6 580.8 1165.2 586.1C1166.3 587 1167.7 586.1 1168.6 585 1168.8 583.8 1168.3 582.1 1167.2 581.9L1150.1 574.2 1144.5 560.8 1158.8 563.1 1170 578.3C1170 578.3 1170.4 578.6 1170.4 578.6 1171.2 579.2 1172.6 579.1 1173.6 578.6 1174.6 577.4 1174.8 576.3 1173.9 575L1165.8 564.1 1180.1 566.3 1204.4 598.3C1204.4 598.3 1204.5 599 1204.5 599 1205.3 599.6 1206.7 599.5 1207.7 599 1209.1 598.1 1209.2 596.3 1208 595.4L1187 567.3 1204.6 569.5 1214 582C1214 582 1214 582 1214.4 582.3 1215.2 583 1216.3 583.2 1217.3 582.7 1218.3 581.5 1218.8 580 1217.9 578.7L1211.5 570.4 1224.3 572.2C1225.8 572.7 1226.8 571.5 1227 570.4 1227.5 568.9 1226.7 567.6 1224.8 567.4L1212.4 565.3 1220.7 559.6C1221.6 558.4 1222.1 556.9 1221 556 1220.1 554.7 1219 554.4 1217.6 555.3L1205.1 564.7 1187.8 562.1 1216.2 540.7C1217.3 540.2 1217.4 538.4 1216.5 537.1 1215.7 536.5 1214.2 535.9 1212.9 536.8L1180.9 561.2 1166.6 558.9 1177.5 550.8C1178.8 549.9 1178.6 548.5 1177.8 547.1 1177.3 546.1 1175.5 546 1174.4 546.5L1159.6 558 1145 556.1 1154.1 544.6 1172.5 542.4C1173.9 542.2 1174.9 541 1174.7 539.6 1174.9 538.5 1173.3 537.2 1171.9 537.4L1158.4 539 1167.5 527.5 1207.6 523C1209.1 522.9 1210 521.7 1209.8 520.2 1209.7 518.8 1208.5 517.9 1207 518.1L1171.9 521.9 1182.5 508.4 1198.1 506.5C1199.5 506.4 1200.5 505.2 1200.3 503.7 1200.1 502.3 1198.9 501.4 1197.5 501.6L1187.2 502.4 1195 492.5C1195.9 491.3 1195.7 489.9 1194.6 489 1193.4 488 1191.9 488.2 1191 489.4L1183.2 499.3 1182 489.4C1181.8 488 1180.6 487 1179.2 487.2S1176.9 488.6 1177 490L1178.8 504.9 1167.9 518.8 1163.7 484C1163.5 482.6 1162.4 481.7 1160.9 481.8 1159.5 482 1158.6 483.2 1158.7 484.6L1163.5 524.4 1154.5 535.9 1152.8 522.4C1152.7 521 1151.5 520 1150.1 520.2 1148.6 520.4 1147.7 521.6 1147.9 523L1150.1 541.5 1141.3 552.6 1136.2 539.5 1143.4 522.1C1143.7 521 1143.1 519.3 1142 519 1140.5 518.5 1139.5 519 1138.5 520.2L1133.2 532.7 1128 519.6 1143.7 482.5C1144.3 480.9 1143.8 479.9 1142.6 479 1141.1 478.4 1139.7 479.3 1139.1 480.1L1125 512.8 1118.7 496.2 1124.6 482.2C1125.6 481 1124.7 479.7 1123.5 478.8 1122.4 478.5 1120.6 479.1 1120.1 480.6L1116.2 489.7 1111.2 478.1C1111 476.7 1109.5 476.1 1107.7 476.7 1106.7 477.2 1106.2 478.7 1106.7 479.7L1111.4 491.7 1101.8 487.5C1100.3 486.9 1099 487.8 1098.8 488.9 1097.8 490.1 1098.3 491.1 1099.1 491.8 1099.5 492.1 1099.5 492.1 1099.9 492.4L1113.9 498.3 1120.2 514.8 1088 501C1086.8 500.1 1085.5 501 1084.5 502.2 1084.3 503.3 1084.8 504.3 1085.6 504.9 1086 505.2 1086 505.2 1086 505.2L1123.2 521.6 1128.4 534.7 1115.9 529.4C1114.4 528.8 1113.3 529.3 1112.4 530.5 1112.2 531.6 1112.3 533 1113.1 533.6 1113.5 534 1113.5 534 1113.9 534.3L1131.4 541.5 1136.5 554.6 1122.6 552.7 1111.1 537.8C1110.2 536.5 1108.4 536.4 1107.4 536.9 1106.5 538 1105.9 539.6 1107.1 540.5L1115.3 551.4 1101 549.9 1076.6 517.1C1076.1 516.1 1074.3 516 1073.3 516.5 1072.3 517.7 1071.8 519.2 1072.7 520.5L1093.7 548.6 1076.5 546 1067.4 533.7C1066.5 532.4 1064.7 532.3 1063.8 533.4 1062.8 533.9 1062.2 535.4 1063.1 536.8L1069.5 545 1056.7 543.3C1055.6 543.1 1054.2 543.9 1053.7 545.5 1053.8 546.2 1054.3 547.2 1055.1 547.8 1055.1 547.8 1055.5 548.1 1055.9 548.4L1068.7 550.1 1060.4 556.5C1059.4 557 1059.3 558.8 1059.8 559.9 1060.2 560.2 1060.2 560.2 1060.2 560.2 1061.3 561.1 1062.8 560.9 1063.4 560.1L1075.6 551.1 1093.2 553.3 1064.8 574.7C1063.8 575.9 1063.6 577 1064.5 578.4 1064.5 578.4 1064.9 578.7 1064.9 578.7 1065.7 579.3 1066.8 579.5 1068.1 578.6L1100.5 554.6 1114.4 556.5 1103.5 564.7C1102.6 565.9 1102.1 567.4 1103.3 568.3 1102.9 568.7 1103.3 569 1103.3 569 1104.1 569.6 1105.6 569.5 1106.6 569L1121.4 557.5 1135.7 559.7 1127 570.9 1108.5 573.1C1107.1 573.3 1105.8 574.8 1106 576.3 1106.5 577.3 1107.7 578.2 1108.8 578.5L1122.6 576.4 1113.5 588 1073.8 592.7C1072.4 592.9 1071.4 594.1 1071.6 595.5 1071.8 596.9 1073 597.9 1074.4 597.7L1109.2 593.5 1098.2 607.4 1083.3 609.2C1081.9 609.4 1081 610.6 1081.1 612S1082.5 614.4 1083.9 614.2L1093.9 613 1086 622.9C1085.1 624.1 1085.3 625.6 1086.5 626.5 1087.7 627.4 1089.1 627.3 1090 626.1L1097.8 616.1 1099.4 626.4C1099.5 627.1 1099.6 627.8 1100 628.1 1100.4 628.4 1101.5 628.7 1102.2 628.6 1103.6 628.4 1104.6 627.2 1104.4 625.8L1102.2 610.6 1113.1 596.7 1117.7 631.7C1117.8 632.5 1117.9 633.2 1118.3 633.5 1118.7 633.8 1119.8 634 1120.5 633.9 1121.9 633.8 1122.8 632.6 1122.7 631.2L1117.5 591.1 1126.6 579.6 1127.9 593.4C1128 594.2 1128.8 594.8 1129.2 595.1 1129.5 595.4 1129.9 595.7 1130.7 595.6 1132.1 595.5 1133.3 593.9 1132.8 592.8L1130.9 574 1139.7 562.9 1145.3 576.2 1137.6 593.4C1137.4 594.5 1137.5 595.9 1138.3 596.5 1138.7 596.8 1138.7 596.8 1139 596.4 1140.2 597.4 1142 596.8 1142.5 595.3L1147.8 582.8 1153.4 596.1 1137 633.4C1136.8 634.5 1137.2 635.5 1138 636.2 1138.4 636.5 1138.4 636.5 1138.4 636.5 1139.9 637 1141.4 636.8 1141.9 635.3L1156 602.7 1162.3 619.2 1156.4 633.2C1155.9 634.7 1156.4 635.8 1157.1 636.4 1157.1 636.4 1157.5 636.7 1157.5 636.7 1159 637.2 1160.4 636.4 1161 635.6L1164.9 625.7 1169.6 637.8C1170 638.1 1170.4 638.4 1170.7 638.7 1171.1 639 1172.3 639.2 1173 639.2 1174.3 638.3 1175.2 637.1 1174.4 635.8L1169.7 623.7 1179.2 628C1180.7 628.5 1182 627.6 1182.6 626.8 1183.2 625.3 1182.3 624 1181.1 623.1L1167.1 617.2 1160.5 601.1 1192.7 614.8C1194.2 615.4 1196 614.8 1196.2 613.7 1196.7 612.2 1196.6 610.8 1195.1 610.2Z" fill="rgba(251, 138, 171, 1)"></path><path d="M140.6 227.8L127.7 254.7 120 257.7 106 245.8 107.3 237.4 132.1 220.6C132.3 220.3 132.3 220.3 132.6 220 133 219.5 133.2 218.7 132.6 217.7 131.8 217 131 216.8 130 217.4L108.5 232.2 110.7 219.5 120.2 212.8C120.2 212.8 120.4 212.5 120.4 212.5 120.9 212 121.1 211.2 120.5 210.2 120.2 209.5 118.9 209.3 117.9 209.9L111.6 214 113.4 204.7C113.6 203.9 113 202.9 111.9 202.5S109.9 203.2 109.5 204.2L107.9 213.3 103.6 207.3C103 206.3 101.7 206.1 100.7 206.7 100.3 207.3 99.8 208.3 100.4 209.3L107.1 218.8 104.6 231.8 89.7 210.2C89.1 209.2 87.9 209.1 87.1 209.4 86.4 210.2 86 211.3 86.6 212.3L103.7 236.7 102.1 245.3 85.2 251.3 78.6 245.7 75.9 215.9C75.8 214.9 75 214.2 73.9 214.3S72.2 215.2 72.3 216.2L74.7 242.4 64.5 233.8 63.6 222.6C63.5 221.6 62.7 220.9 61.4 220.7S59.7 221.6 59.8 222.6L60.7 230.5 53.2 224.2C52.4 223.5 51.2 223.9 50.4 224.7 49.7 225.5 49.8 226.5 50.7 227.2L58.1 233.5 50.5 234.2C49.2 234 48.5 234.8 48.8 236.1 48.9 237.1 49.7 237.8 50.8 237.7L61.9 236.8 72.1 245.5 45.9 247.4C44.9 247.4 44 248.5 44 249.6S44.9 251.3 46 251.2L76 248.7 82.6 254.3 79.2 272.3 71.2 275 44.3 262.1C43.2 261.7 42.3 262.3 41.6 263.1 41.1 264.1 41.7 265.1 42.6 265.8L66.3 276.9 54.1 281.3 43.7 276.2C42.6 275.8 41.6 276.4 40.9 277.2 40.7 278 41.1 279.3 42.2 279.7L48.8 283 39.9 286.3C39.1 286.6 38.7 287.7 38.8 288.7 39.4 289.7 40.4 290.1 41.2 289.8L50.1 286.5 46.9 293.6C46.7 294.4 47.1 295.7 47.8 295.9 48.7 296.6 49.4 296.3 50.1 295.4 50.1 295.4 50.3 295.2 50.3 295.2L55.4 284.8 67.6 280.4 56.5 304.1C56 305.2 56.1 306.2 57.2 306.6 58.2 307.1 59 306.7 59.4 306.2 59.7 305.9 59.7 305.9 59.7 305.9L72.5 278.5 80.5 275.8 94.6 287.7 92.9 295.8 68.2 313.2C67.5 313.5 67.3 314.8 67.6 315.5 68.2 316.5 69.5 316.6 70.5 316.1L92.1 301.2 89.8 314 80.4 320.6C79.4 321.2 79 322.3 79.8 323 80.4 324 81.7 324.1 82.4 323.8L88.7 319.2 86.9 328.5C87 329.6 87.6 330.5 88.6 331 89.1 330.9 89.9 330.6 90.3 330.1 90.6 329.8 90.6 329.8 90.5 329.3L92.3 319.9 96.9 326.2C97.5 327.2 98.6 327.1 99.3 326.8 99.5 326.5 99.5 326.5 99.8 326.2 100.2 325.7 100.4 324.9 100.1 324.1L93.4 314.7 95.7 301.9 110.6 323.5C111.4 324.2 112.5 324.7 113.2 323.8 113.7 323.8 113.7 323.8 113.9 323.5 114.4 323 114.3 321.9 114 321.2L96.6 296.5 98.2 288.4 115.4 282.1 121.7 287.5 124.2 317.5C124.3 318.6 125.4 319.5 126.4 319.4S128.3 318.2 128.2 317.2L125.8 291 135.7 299.4 136.9 310.9C137 311.9 137.9 312.6 138.9 312.5 139.9 312.4 140.6 311.6 140.5 310.6L139.9 302.9 147.3 309.2C147.9 309.7 149.2 309.9 149.9 309 150.6 308.2 150.4 306.7 149.9 306.2L142.4 299.9 150.1 299.3C150.6 299.2 151.1 299.2 151.3 298.9 151.8 298.4 151.8 297.9 151.7 297.3 151.6 296.3 150.8 295.6 149.8 295.7L138.3 296.4 128.4 288 154.6 286.1C155.1 286 155.4 285.8 155.8 285.2 156.1 284.9 156.3 284.7 156.3 284.2 156.2 283.1 155.1 282.2 154.1 282.3L124.3 284.5 117.9 279.1 121.1 261.4 129 258.2 156.2 271.4C157 271.5 158 271.5 158.5 270.9 158.7 270.6 158.7 270.6 158.5 270.4 159.2 269.6 158.8 268.3 157.8 267.9L134 256.8 146.5 252.2 156.9 257.2C157.7 257.4 158.4 257.1 158.9 256.5 158.9 256.5 159.1 256.3 159.1 256.3 159.8 255.4 159.4 254.2 158.4 253.8L151.2 250.5 160.2 247.2C160.7 247.2 160.9 246.9 161.1 246.6 161.6 246.1 161.8 245.3 161.5 245 161.2 243.8 160.1 243.4 159.1 243.5L150.1 246.7 153.4 240.1C153.8 239 153.5 237.8 152.4 237.3 151.6 237.1 150.4 237.5 150.2 238.3L145.2 248.7 133 253 144.1 229.3C144.5 228.3 143.9 227.3 143.1 226.6 142.3 226.4 141.1 226.7 140.6 227.8ZM105.1 250.2L115.8 259.3 117.5 260.7 117.1 262.8 114.6 276.3 114.1 278.7 112.1 279.3 99.1 284 97.1 284.7 95.5 283.3 84.7 274.1 83.1 272.7 83.4 270.7 85.9 257.1 86.2 255.1 88.5 254.1 101.4 249.5 103.4 248.8 105.1 250.2Z" fill="rgba(255, 231, 28, 1)"></path><path d="M1061.5 356.1L1069.6 346.4 1072.5 353.5C1072.8 354.3 1073.8 354.8 1074.9 354.6 1075.7 354 1076.3 353 1075.7 352.2L1072.3 343.2 1078.3 335.4 1085.2 354C1085.8 354.9 1086.8 355.4 1087.6 355.2 1088.8 354.6 1089.3 353.6 1088.7 352.8L1081 332.2 1090.6 320.5 1094.8 337.3 1104.1 322.7 1109.6 336.7 1095.9 353.9C1095.5 353.9 1095.4 354.2 1095.4 354.6 1095.3 355.3 1095.5 356.1 1096.2 356.5 1096.8 357 1097.9 356.8 1098.8 356.2L1111.1 340.6 1114.4 349.9 1108.5 357.4C1108 357.7 1108 358 1107.9 358.4 1107.9 358.8 1108.1 359.5 1108.8 360 1109.4 360.5 1110.6 360.3 1111 359.6L1116 353.8 1120.7 365.6C1120.9 366.7 1121.9 366.9 1123.1 366.7 1123.8 366.4 1124.4 365.4 1123.8 364.2L1119.5 352.6 1127 353.8C1128 353.9 1128.9 353 1129 352.3 1129.2 351.2 1128.6 350.4 1127.5 350.2L1117.9 348.7 1114.6 339.4 1133.9 342.4C1135 342.6 1135.8 342 1136 340.9 1136.1 340.2 1135.5 339 1134.5 338.9L1113.1 335.4 1107.6 321.4 1124.1 325.9 1116.3 310.7 1131.2 313.1 1139 333.4C1139.5 334.6 1140.6 334.7 1141.4 334.5 1142.1 334.2 1142.7 333.2 1142.5 332.1L1135.2 313.7 1144.8 315.3 1148.5 324.3C1148.7 325.4 1149.7 325.9 1150.9 325.4 1151.6 325.1 1152.2 324.1 1151.6 322.9L1149.1 316 1161.6 318C1162.6 318.1 1163.5 317.5 1163.6 316.5S1163.2 314.6 1162.1 314.4L1149.6 312.4 1154.2 306.5C1155.1 305.6 1154.9 304.5 1154.3 304 1153.3 303.1 1152.2 303.3 1151.7 304.3L1145.4 311.7 1135.7 310.2 1148.4 295C1148.9 294 1148.7 292.9 1148.1 292.4 1147.1 291.5 1146 291.7 1145.5 292.7L1131.8 309.6 1116.8 307.2 1129 295.2 1111.9 294.3 1121.5 282.7 1142.9 286.1C1143.9 286.3 1144.8 285.3 1144.9 284.6 1145.1 283.5 1144.5 282.7 1143.4 282.5L1123.8 279.4 1130.2 271.6 1139.8 273.2C1140.9 273.3 1141.7 272.7 1141.9 271.7 1142 271 1141.4 269.8 1140.4 269.6L1132.9 268.4 1140.7 258.7C1141.5 257.7 1141.4 256.6 1140.3 256.1 1139.7 255.6 1138.6 255.4 1138.1 256.4L1130 266.1 1127.1 259.1C1126.8 258.3 1125.8 257.8 1125 258 1124.3 258.3 1123.8 258.9 1123.7 259.3 1123.7 259.6 1123.6 260 1123.9 260.4L1127.3 269.3 1121.3 277.2 1114.4 258.5C1113.8 257.7 1112.7 257.1 1112 257.4 1111.2 257.6 1110.7 258.3 1110.6 259 1110.6 259.4 1110.6 259.4 1110.9 259.8L1118.5 280.4 1109 292 1104.7 275.2 1095.5 289.9 1090 275.8 1103.7 258.6C1104.2 258 1104.4 256.9 1103.4 256 1102.8 255.6 1101.6 255.7 1100.8 256.3L1088.4 271.9 1085.2 262.6 1091.1 255.2C1091.9 254.6 1091.8 253.4 1090.8 252.5 1090.1 252.1 1089 252.3 1088.2 252.9L1083.6 258.7 1078.9 247C1078.7 245.9 1077.6 245.7 1076.5 245.9 1076.1 246.2 1075.6 246.8 1075.6 247.2 1075.5 247.6 1075.5 247.9 1075.8 248.3L1080.1 260 1072.6 258.8C1071.6 258.6 1070.7 259.6 1070.6 260.3L1070.6 260.3C1070.4 261.4 1071 262.2 1072.1 262.4L1081.7 263.9 1085 273.2 1065.7 270.1C1064.6 269.9 1063.8 270.5 1063.6 271.6S1064.1 273.5 1065.1 273.7L1086.5 277.1 1092 291.1 1075.5 286.7 1083.3 301.8 1068.3 299.4 1060.6 279.2C1060.1 278 1059 277.8 1058.2 278.1 1057.4 278.3 1056.9 279.3 1057.1 280.5L1064.1 298.7 1054.8 297.3 1051.1 288.3C1050.9 287.1 1049.9 286.6 1048.7 287.2 1047.9 287.4 1047.4 288.4 1047.6 289.5L1050.5 296.6 1038 294.6C1037 294.4 1036.1 295 1036 296.1S1036.4 298 1037.5 298.2L1049.9 300.2 1045.3 306C1044.9 306.3 1044.9 306.7 1044.8 307 1044.7 307.7 1045 308.1 1045.3 308.6 1046.3 309.4 1047.4 309.3 1047.9 308.2L1054.2 300.8 1063.8 302.4 1051.2 317.5C1051.1 317.9 1051.1 318.3 1051 318.6 1050.9 319.3 1051.2 319.7 1051.5 320.1 1052.5 321 1053.6 320.8 1054.1 319.8L1067.8 303 1082.7 305.4 1070.6 317.3 1087.6 318.2 1078.1 329.9 1056.7 326.5C1055.6 326.3 1054.8 327.2 1054.6 328 1054.5 329 1055.1 329.9 1056.1 330L1075.4 333.1 1069.4 340.9 1059.8 339.4C1058.7 339.2 1057.9 339.8 1057.7 340.9S1058.1 342.8 1059.2 343L1066.7 344.1 1058.9 353.9C1058.5 354.2 1058.5 354.5 1058.4 354.9 1058.3 355.2 1058.6 356 1059.2 356.5 1059.9 357 1061 357.1 1061.5 356.1ZM1078.8 314.3L1088.7 304.5 1082.3 292.1 1096 295.8 1103.3 284.2 1107 297.6 1120.8 298.3 1110.8 308 1117.3 320.4 1104 316.8 1096.3 328.4 1092.9 315 1078.8 314.3Z" fill="rgba(251, 138, 171, 1)"></path></g><defs><mask id="SvgjsMask1052"><rect width="1300" height="600" fill="#ffffff"></rect></mask><filter id="SvgjsFilter1053"><feGaussianBlur stdDeviation="1"></feGaussianBlur></filter></defs></svg>